<svg width="15" height="15" viewBox="0 0 15 15" fill="none" xmlns="http://www.w3.org/2000/svg">
<path d="M13.7298 9.8013C12.8159 9.8013 11.9186 9.65832 11.0682 9.37721C10.6515 9.23504 10.1392 9.36547 9.88493 9.62674L8.20647 10.8942C6.25993 9.85481 5.0609 8.6558 4.03602 6.72328L5.2658 5.08804C5.58531 4.76887 5.69991 4.30262 5.5626 3.86515C5.28038 3.01005 5.13701 2.11283 5.13701 1.19823C5.13705 0.537521 4.59969 0 3.93922 0H1.19783C0.537356 0 0 0.537521 0 1.19819C0 8.77125 6.15913 14.9322 13.7298 14.9322C14.3903 14.9322 14.9277 14.3947 14.9277 13.734V10.9995C14.9276 10.3388 14.3903 9.8013 13.7298 9.8013Z" fill="#4CC2FF"/>
</svg>
