<svg data-bbox="0.8 4.179 30.4 23.615" xmlns="http://www.w3.org/2000/svg" viewBox="0 0 32 32" height="32" width="32" data-type="color">
            <path fill="#000000" d="M26.535 6.137a24.726 24.726 0 0 0-6.188-1.956.093.093 0 0 0-.1.048 17.901 17.901 0 0 0-.77 1.613 22.714 22.714 0 0 0-6.95 0 16.476 16.476 0 0 0-.782-1.613.097.097 0 0 0-.1-.048 24.658 24.658 0 0 0-6.188 1.956.089.089 0 0 0-.04.036c-3.941 6-5.021 11.854-4.491 17.634a.107.107 0 0 0 .04.073 25.028 25.028 0 0 0 7.59 3.91.097.097 0 0 0 .107-.035 18.428 18.428 0 0 0 1.553-2.575.099.099 0 0 0-.053-.136c-.827-.32-1.614-.71-2.371-1.152a.1.1 0 0 1-.01-.165c.16-.122.319-.248.471-.376a.093.093 0 0 1 .098-.014c4.975 2.316 10.362 2.316 15.278 0a.092.092 0 0 1 .1.013c.152.128.311.255.472.377a.1.1 0 0 1-.009.165c-.757.451-1.544.832-2.372 1.15a.1.1 0 0 0-.052.138c.457.901.978 1.76 1.552 2.573.024.035.067.05.107.037 2.484-.783 5.002-1.964 7.603-3.91a.1.1 0 0 0 .04-.072c.633-6.683-1.063-12.488-4.495-17.634a.078.078 0 0 0-.04-.037zm-15.576 14.15c-1.498 0-2.732-1.401-2.732-3.122 0-1.721 1.21-3.123 2.732-3.123 1.534 0 2.756 1.414 2.732 3.123 0 1.721-1.21 3.122-2.732 3.122zm10.101 0c-1.498 0-2.732-1.401-2.732-3.122 0-1.721 1.21-3.123 2.732-3.123 1.534 0 2.756 1.414 2.732 3.123 0 1.721-1.198 3.122-2.732 3.122z" data-color="1"></path>

</svg>