<svg width="9" height="16" viewBox="0 0 9 16" fill="none" xmlns="http://www.w3.org/2000/svg">
<path d="M8.10133 0.00322373L6.08215 0C3.81368 0 2.34769 1.49661 2.34769 3.81302V5.57108H0.317496C0.142063 5.57108 0 5.7126 0 5.88717V8.43439C0 8.60896 0.142225 8.75032 0.317496 8.75032H2.34769V15.1778C2.34769 15.3523 2.48975 15.4937 2.66518 15.4937H5.31401C5.48944 15.4937 5.6315 15.3522 5.6315 15.1778V8.75032H8.00527C8.1807 8.75032 8.32277 8.60896 8.32277 8.43439L8.32374 5.88717C8.32374 5.80335 8.29021 5.72308 8.23076 5.66376C8.17131 5.60445 8.09031 5.57108 8.00608 5.57108H5.6315V4.08075C5.6315 3.36444 5.80305 3.00081 6.74079 3.00081L8.101 3.00032C8.27628 3.00032 8.41834 2.8588 8.41834 2.6844V0.319149C8.41834 0.144906 8.27644 0.0035461 8.10133 0.00322373Z" fill="#4CC2FF"/>
</svg>
