<?xml version="1.0" encoding="UTF-8" standalone="no"?>
<svg
   viewBox="0 0 42 42"
   version="1.1"
   id="svg4"
   width="42"
   height="42"
   xmlns="http://www.w3.org/2000/svg"
   xmlns:svg="http://www.w3.org/2000/svg">
  <defs
     id="defs8" />
  <!--!Font Awesome Free 6.7.2 by @fontawesome - https://fontawesome.com License - https://fontawesome.com/license/free Copyright 2025 Fonticons, Inc.-->
  <path
     d="M 6.6249999,37.25 H 10.375 V 41 H 6.6249999 C 3.8671874,41 1.625,38.757812 1.625,35.999999 V 5.9999999 C 1.625,3.2421874 3.8671874,1 6.6249999,1 H 19.554688 c 1.328124,0 2.601561,0.5234375 3.539061,1.4609375 l 7.070313,7.0703124 C 31.101562,10.46875 31.625,11.742188 31.625,13.070312 V 24.75 h -3.75 V 13.5 h -6.25 c -1.382813,0 -2.5,-1.117188 -2.5,-2.5 V 4.7499999 H 6.6249999 c -0.6874999,0 -1.25,0.5625001 -1.25,1.25 V 35.999999 c 0,0.687501 0.5625001,1.250001 1.25,1.250001 z M 15.374999,28.5 H 17.875 c 2.414062,0 4.375,1.960937 4.375,4.375 0,2.414062 -1.960938,4.375 -4.375,4.375 h -1.25 v 2.5 C 16.625,40.437499 16.0625,41 15.374999,41 14.6875,41 14.125,40.437499 14.125,39.75 v -3.750001 -6.25 C 14.125,29.0625 14.6875,28.5 15.374999,28.5 Z M 17.875,34.75 c 1.039062,0 1.874999,-0.835938 1.874999,-1.875 C 19.749999,31.835937 18.914062,31 17.875,31 h -1.25 v 3.75 z m 7.5,-6.25 h 2.5 c 2.070312,0 3.75,1.679687 3.75,3.75 v 5 c 0,2.070312 -1.679688,3.75 -3.75,3.75 h -2.5 c -0.6875,0 -1.250001,-0.562501 -1.250001,-1.25 V 29.749999 C 24.124999,29.0625 24.6875,28.5 25.375,28.5 Z m 2.5,9.999999 c 0.6875,0 1.25,-0.5625 1.25,-1.249999 v -5 c 0,-0.6875 -0.5625,-1.25 -1.25,-1.25 h -1.25 v 7.499999 z m 6.25,-8.75 C 34.125,29.0625 34.687499,28.5 35.375,28.5 h 3.749999 C 39.8125,28.5 40.375,29.0625 40.375,29.749999 40.375,30.4375 39.8125,31 39.124999,31 h -2.5 v 2.5 h 2.5 c 0.687501,0 1.250001,0.562499 1.250001,1.25 0,0.6875 -0.5625,1.249999 -1.250001,1.249999 h -2.5 V 39.75 c 0,0.687499 -0.562499,1.25 -1.249999,1.25 -0.687501,0 -1.25,-0.562501 -1.25,-1.25 v -5 z"
     id="path2"
     style="stroke-width:0.078125;stroke:none;fill:#000000" />
</svg>
