<svg data-bbox="1.333 2.25 29.335 27.5" xmlns="http://www.w3.org/2000/svg" viewBox="0 0 32 32" height="32" width="32" data-type="color">
    <g>
        <path fill="#ffffff" d="M16 2.25c-8.1 0-14.667 6.312-14.667 14.098 0 6.228 4.202 11.513 10.031 13.377.732.13.97-.307.97-.678v-2.624c-4.08.853-4.93-1.664-4.93-1.664-.667-1.63-1.63-2.063-1.63-2.063-1.33-.875.102-.856.102-.856 1.473.099 2.248 1.453 2.248 1.453 1.308 2.155 3.43 1.532 4.268 1.171.13-.91.51-1.533.931-1.884-3.257-.358-6.682-1.567-6.682-6.968 0-1.54.574-2.797 1.511-3.784-.152-.356-.654-1.79.143-3.731 0 0 1.232-.378 4.034 1.445A14.6 14.6 0 0 1 16 9.067c1.248.006 2.503.162 3.675.475 2.8-1.823 4.03-1.445 4.03-1.445.798 1.942.295 3.376.144 3.731a5.332 5.332 0 0 1 1.51 3.784c0 5.415-3.432 6.607-6.697 6.956.525.437 1.006 1.295 1.006 2.61v3.87c0 .374.234.815.978.676 5.824-1.867 10.022-7.15 10.022-13.376C30.667 8.562 24.1 2.25 16 2.25z" data-color="1"></path>
    </g>
</svg>