<svg width="15" height="15" viewBox="0 0 15 15" fill="none" xmlns="http://www.w3.org/2000/svg">
<path d="M10.0955 0H4.58885C2.05489 0 0 2.04472 0 4.56613V10.0455C0 12.5669 2.05489 14.6116 4.58885 14.6116H10.0955C12.6294 14.6116 14.6843 12.5669 14.6843 10.0455V4.56613C14.6843 2.04472 12.6294 0 10.0955 0ZM13.3077 10.0455C13.3077 11.808 11.8668 13.2418 10.0955 13.2418H4.58885C2.81755 13.2418 1.37665 11.808 1.37665 10.0455V4.56613C1.37665 2.80361 2.81755 1.36984 4.58885 1.36984H10.0955C11.8668 1.36984 13.3077 2.80361 13.3077 4.56613V10.0455Z" fill="#4CC2FF"/>
<path d="M7.34967 3.66113C5.32231 3.66113 3.67859 5.29672 3.67859 7.31404C3.67859 9.33136 5.32231 10.9669 7.34967 10.9669C9.37702 10.9669 11.0207 9.33136 11.0207 7.31404C11.0207 5.29672 9.37702 3.66113 7.34967 3.66113ZM7.34967 9.59711C6.08498 9.59711 5.05524 8.57247 5.05524 7.31404C5.05524 6.0547 6.08498 5.03097 7.34967 5.03097C8.61436 5.03097 9.64409 6.0547 9.64409 7.31404C9.64409 8.57247 8.61436 9.59711 7.34967 9.59711Z" fill="#4CC2FF"/>
<path d="M11.2785 3.87716C11.5493 3.87716 11.7689 3.65868 11.7689 3.38917C11.7689 3.11966 11.5493 2.90118 11.2785 2.90118C11.0077 2.90118 10.7881 3.11966 10.7881 3.38917C10.7881 3.65868 11.0077 3.87716 11.2785 3.87716Z" fill="#4CC2FF"/>
</svg>
