<svg width="14" height="14" viewBox="0 0 14 14" fill="none" xmlns="http://www.w3.org/2000/svg">
<path d="M13.6113 13.5404V13.5399H13.6147V8.56835C13.6147 6.13625 13.0885 4.26276 10.2311 4.26276C8.85747 4.26276 7.93564 5.01283 7.55931 5.72394H7.51958V4.48981H4.8103V13.5399H7.6314V9.05861C7.6314 7.87871 7.85618 6.73778 9.32462 6.73778C10.7715 6.73778 10.7931 8.0843 10.7931 9.13429V13.5404H13.6113Z" fill="#4CC2FF"/>
<path d="M0.216125 4.50616H3.04063V13.5562H0.216125V4.50616Z" fill="#4CC2FF"/>
<path d="M1.63589 0C0.732803 0 0 0.729178 0 1.6278C0 2.52642 0.732803 3.27085 1.63589 3.27085C2.53899 3.27085 3.27179 2.52642 3.27179 1.6278C3.27122 0.729178 2.53842 0 1.63589 0V0Z" fill="#4CC2FF"/>
</svg>
