<svg width="431" height="278" viewBox="0 0 431 278" fill="none" xmlns="http://www.w3.org/2000/svg">
<path d="M101.621 57.9651C116.784 83.2337 130.574 105.126 142.933 127.749C145.222 131.914 143.219 140.018 140.53 144.745C119.302 181.944 97.6726 218.862 75.6431 255.612C62.8832 276.884 39.5377 283.919 20.5408 271.482C2.11618 259.382 -6.52396 242.611 5.66378 221.507C36.7911 167.875 68.4335 114.524 101.621 57.9651Z" fill="url(#paint0_linear_255_8627)" fill-opacity="0.05"/>
<path d="M276.611 159.392C304.373 112.204 331.277 67.6025 356.921 22.3266C366.652 5.17237 381.478 -3.82657 398.65 2.19147C411.014 6.52221 422.806 19.0645 429.103 30.8756C433.11 38.356 429.217 52.8105 424.18 61.5282C387.545 125.477 349.995 188.919 312.215 252.25C292.066 285.996 257.778 286.221 237.286 252.081C199.335 188.863 162.357 125.083 125.493 61.3033C113.358 40.3245 119.139 15.4087 136.998 5.05988C155.43 -5.57012 180.159 0.841629 192.752 21.5392C217.48 62.2032 241.064 103.542 265.22 144.487C267.91 148.987 271.574 152.924 276.554 159.335L276.611 159.392Z" fill="url(#paint1_linear_255_8627)" fill-opacity="0.05"/>
<defs>
<linearGradient id="paint0_linear_255_8627" x1="71.966" y1="87.2733" x2="71.966" y2="259.42" gradientUnits="userSpaceOnUse">
<stop stop-color="black"/>
<stop offset="1" stop-color="white" stop-opacity="0"/>
</linearGradient>
<linearGradient id="paint1_linear_255_8627" x1="274.92" y1="37.0423" x2="274.92" y2="254.617" gradientUnits="userSpaceOnUse">
<stop stop-color="black"/>
<stop offset="1" stop-color="white" stop-opacity="0"/>
</linearGradient>
</defs>
</svg>
