<svg width="181" height="27" viewBox="0 0 181 27" fill="none" xmlns="http://www.w3.org/2000/svg">
<path d="M47.9507 23.6341V4.64595C47.9507 3.81611 48.4147 3.35205 49.2446 3.35205H50.0471C50.7241 3.35205 51.2482 3.59773 51.6522 4.1546L61.5176 17.5631V4.64595C61.5176 3.81611 61.9816 3.35205 62.8115 3.35205H64.291C65.1208 3.35205 65.6176 3.81611 65.6176 4.64595V23.6341C65.6176 24.464 65.1263 24.928 64.291 24.928H63.5212C62.8442 24.928 62.3474 24.6823 61.9161 24.1255L52.0235 10.6241V23.6341C52.0235 24.464 51.5594 24.928 50.7296 24.928H49.25C48.4202 24.928 47.9561 24.464 47.9561 23.6341H47.9507Z" fill="white"/>
<path d="M69.0681 17.1645C69.0681 12.6932 72.4912 8.93701 77.574 8.93701C81.7669 8.93701 85.4029 11.4648 85.7087 16.4602C85.7687 17.2628 85.2446 17.6941 84.4148 17.6941H72.9171C72.857 20.0689 74.9535 22.0071 78.1855 22.0071C79.4794 22.0071 80.7733 21.6686 82.0399 20.866C82.7169 20.4675 83.3338 20.5275 83.8579 21.1117L84.1363 21.4502C84.6932 22.0671 84.6605 22.8369 83.8907 23.4211C82.1054 24.8078 79.9762 25.2718 78.0053 25.2718C72.4585 25.2718 69.0681 21.6358 69.0681 17.1645ZM81.8925 15.1936C81.2756 12.7259 79.3047 12.109 77.6395 12.109C75.9744 12.109 73.8506 12.8187 73.1081 15.1936H81.8925Z" fill="white"/>
<path d="M89.5086 19.8451V12.2946H87.7833C87.3193 12.2946 87.0736 12.0489 87.0736 11.5848V9.97973C87.0736 9.54843 87.3193 9.27 87.7833 9.27H89.6942L90.251 5.9124C90.3439 5.29548 90.7424 4.98975 91.332 4.98975H92.413C93.0627 4.98975 93.4285 5.36099 93.4285 6.00521V9.27H97.3102C97.7742 9.27 98.0199 9.54843 98.0199 9.97973V11.5848C98.0199 12.0489 97.7742 12.2946 97.3102 12.2946H93.4285V19.9979C93.4285 21.4174 94.1382 21.9688 94.9681 21.9688C95.7979 21.9688 96.5404 21.3846 96.5404 20.4292C96.5404 20.2764 96.5404 20.0907 96.5076 19.8724C96.4476 19.381 96.6004 19.1026 97.0918 19.1026H98.7242C99.1227 19.1026 99.4339 19.2554 99.5267 19.6594C99.6523 20.1835 99.6796 20.7077 99.6796 20.8332C99.6796 23.7322 97.6432 25.2718 94.7169 25.2718C92.1291 25.2718 89.5086 24.038 89.5086 19.8451Z" fill="white"/>
<path d="M106.275 23.8798L99.614 4.86433C99.3083 3.96897 99.7069 3.35205 100.662 3.35205H102.202C102.944 3.35205 103.468 3.7233 103.681 4.43303L108.611 19.7524L113.514 4.43303C113.732 3.7233 114.256 3.35205 114.993 3.35205H116.566C117.488 3.35205 117.892 3.96897 117.581 4.86433L110.893 23.8798C110.648 24.6223 110.156 24.928 109.414 24.928H107.749C107.006 24.928 106.548 24.6223 106.269 23.8798H106.275Z" fill="#4CC2FF"/>
<path d="M117.898 17.0991C117.898 12.5349 121.01 8.93164 125.541 8.93164C127.605 8.93164 129.516 9.70143 130.842 11.6123V10.5968C130.842 9.76694 131.306 9.27013 132.136 9.27013H133.49C134.32 9.27013 134.817 9.76148 134.817 10.5968V23.6341C134.817 24.4639 134.326 24.928 133.49 24.928H132.136C131.306 24.928 130.842 24.4639 130.842 23.6341V22.5859C129.516 24.4967 127.605 25.2665 125.541 25.2665C121.01 25.2665 117.898 21.6577 117.898 17.0991ZM130.908 17.0991C130.875 14.2929 129.057 12.2292 126.317 12.2292C123.576 12.2292 121.878 14.4512 121.878 17.0991C121.878 19.7469 123.51 21.9689 126.317 21.9689C129.123 21.9689 130.881 19.9052 130.908 17.0991Z" fill="#4CC2FF"/>
<path d="M139.103 23.634V3.94161C139.103 3.11176 139.567 2.64771 140.396 2.64771H141.783C142.613 2.64771 143.077 3.11176 143.077 3.94161V23.634C143.077 24.4639 142.613 24.9279 141.783 24.9279H140.396C139.567 24.9279 139.103 24.4639 139.103 23.634Z" fill="#4CC2FF"/>
<path d="M151.649 23.9124L146.38 10.7823C146.009 9.88694 146.38 9.27002 147.368 9.27002H148.848C149.618 9.27002 150.114 9.60851 150.36 10.351L154.122 20.5821L157.883 10.351C158.129 9.60851 158.626 9.27002 159.363 9.27002H160.875C161.831 9.27002 162.229 9.88694 161.863 10.7823L156.595 23.9124C156.316 24.5894 155.825 24.9279 155.055 24.9279H153.205C152.462 24.9279 151.938 24.5894 151.665 23.9124H151.649Z" fill="#4CC2FF"/>
<path d="M163.365 17.1645C163.365 12.6932 166.788 8.93701 171.871 8.93701C176.063 8.93701 179.699 11.4648 180.005 16.4602C180.065 17.2628 179.541 17.6941 178.711 17.6941H167.214C167.154 20.0689 169.25 22.0071 172.482 22.0071C173.776 22.0071 175.07 21.6686 176.336 20.866C177.013 20.4675 177.63 20.5275 178.154 21.1117L178.433 21.4502C178.99 22.0671 178.957 22.8369 178.187 23.4211C176.402 24.8078 174.273 25.2718 172.302 25.2718C166.755 25.2718 163.365 21.6358 163.365 17.1645ZM176.189 15.1936C175.572 12.7259 173.601 12.109 171.936 12.109C170.271 12.109 168.147 12.8187 167.405 15.1936H176.189Z" fill="#4CC2FF"/>
<path d="M9.69599 5.60669C11.1428 8.05801 12.4585 10.1818 13.6378 12.3765C13.8561 12.7805 13.665 13.5666 13.4085 14.0252C11.383 17.634 9.31928 21.2154 7.21737 24.7805C5.99991 26.8442 3.77243 27.5266 1.95987 26.32C0.201912 25.1463 -0.622473 23.5193 0.540401 21.472C3.51037 16.2691 6.52948 11.0935 9.69599 5.60669Z" fill="white"/>
<path d="M26.3693 15.472C29.0172 10.8915 31.5831 6.56213 34.029 2.16723C34.9571 0.502078 36.3711 -0.371443 38.009 0.212724C39.1882 0.633106 40.3129 1.85058 40.9134 2.99707C41.2956 3.72319 40.9243 5.12628 40.4439 5.9725C36.9498 12.18 33.3684 18.3383 29.7651 24.4857C27.8434 27.7614 24.5731 27.7832 22.6186 24.4693C18.999 18.3328 15.4721 12.1417 11.9562 5.95066C10.7988 3.91427 11.3502 1.49571 13.0536 0.491159C14.8115 -0.540687 17.17 0.0816963 18.3711 2.09079C20.7296 6.03802 22.9789 10.0508 25.2829 14.0253C25.5394 14.462 25.8889 14.8442 26.3638 15.4666L26.3693 15.472Z" fill="url(#paint0_linear_670_5979)"/>
<defs>
<linearGradient id="paint0_linear_670_5979" x1="19.9271" y1="17.3283" x2="41.0335" y2="-28.4005" gradientUnits="userSpaceOnUse">
<stop stop-color="#4CC2FF"/>
<stop offset="1" stop-color="#0650F9"/>
</linearGradient>
</defs>
</svg>
