<svg width="64" height="64" viewBox="0 0 64 64" fill="none" xmlns="http://www.w3.org/2000/svg">
<rect width="64" height="64" rx="12" fill="#4CC2FF"/>
<path d="M54.2824 50.6852H53.2288L43.3981 35.9392C43.0064 35.3516 42.3554 35.0078 41.6443 35.0208C41.1954 35.0291 40.7728 35.1808 40.4287 35.4444L34.4182 22.3306C34.1661 21.7807 33.708 21.3873 33.1574 21.2189V16.1646H38.8239C39.0663 16.1646 39.2892 16.0311 39.4036 15.8174C39.5179 15.6038 39.5056 15.3442 39.371 15.1425L38.2086 13.399L39.371 11.6558C39.5056 11.4542 39.5179 11.1946 39.4036 10.981C39.2892 10.7673 39.0663 10.6338 38.8239 10.6338H33.1574V10.5886C33.1574 10.2256 32.863 9.93115 32.5 9.93115C32.1371 9.93115 31.8426 10.2256 31.8426 10.5886V21.248C31.3129 21.4356 30.8801 21.8342 30.6473 22.3776L28.386 27.6533L27.2619 26.7679C26.9387 26.5135 26.5233 26.4193 26.122 26.5097C25.7207 26.5998 25.3859 26.8627 25.2027 27.2308L17.501 42.7143L16.2971 43.4645C15.5678 43.9189 14.9696 44.5609 14.5673 45.3204L11.727 50.6852H10.7176C10.3546 50.6852 10.0602 50.9796 10.0602 51.3426C10.0602 51.7059 10.3546 52 10.7176 52H54.2824C54.6454 52 54.9398 51.7059 54.9398 51.3426C54.9398 50.9796 54.6454 50.6852 54.2824 50.6852ZM37.5957 11.9486L36.8715 13.0344C36.7243 13.2552 36.7243 13.5428 36.8715 13.7637L37.5957 14.8498H33.1574V11.9486H37.5957ZM26.3799 27.8163C26.3829 27.8105 26.3895 27.7968 26.4103 27.7923C26.4316 27.7876 26.4436 27.7968 26.4483 27.8009L27.8498 28.9045L27.6478 29.376C27.5047 29.7098 27.6594 30.096 27.9933 30.2392C28.3271 30.3823 28.7134 30.2275 28.8565 29.894L31.8556 22.8953C32.0337 22.4806 32.4199 22.4436 32.5339 22.4423C32.6469 22.4406 33.0348 22.468 33.2228 22.8785L37.633 32.5004L36.9211 33.2126C36.7794 33.354 36.5924 33.4259 36.3918 33.4153C36.1918 33.4044 36.0127 33.3129 35.8874 33.1571C35.4382 32.5997 34.7469 32.3275 34.0388 32.4282C33.33 32.5292 32.7424 32.9835 32.4665 33.6437L31.3745 36.2576C31.2328 36.5973 30.9345 36.6668 30.8126 36.6808C30.6907 36.6949 30.3843 36.6955 30.1689 36.3973L27.5947 32.8373L27.7892 32.3843C27.9323 32.0505 27.7776 31.6643 27.4437 31.5211C27.1102 31.378 26.7236 31.5328 26.5805 31.8663L24.0724 37.7187C23.7276 38.5233 23.1524 39.1937 22.4093 39.6567L19.6311 41.3875L26.3799 27.8163ZM15.7294 45.9357C16.0232 45.381 16.4597 44.9122 16.9925 44.5804L23.1044 40.7726C24.0769 40.1665 24.8295 39.2896 25.2811 38.2364L26.9911 34.2463L29.1034 37.1677C29.4882 37.6995 30.0813 38.0008 30.7236 38.0008C30.8031 38.0008 30.8832 37.996 30.9636 37.9868C31.6964 37.9022 32.3038 37.4451 32.588 36.7644L33.6799 34.1505C33.8176 33.8214 34.1062 33.7468 34.2237 33.73C34.3415 33.7132 34.6397 33.7043 34.8636 33.982C35.2211 34.4257 35.7525 34.6976 36.3216 34.7281C36.891 34.7586 37.4478 34.5449 37.8508 34.1419L38.2175 33.7752L39.5313 36.6421L39.167 37.2342C38.9769 37.5433 39.0731 37.9484 39.3823 38.1384C39.6919 38.3288 40.0966 38.2323 40.287 37.9231L41.0447 36.6911C41.181 36.4699 41.4083 36.3401 41.6682 36.3353C41.9257 36.3309 42.1599 36.4521 42.3041 36.6685L51.6486 50.6852H23.0346L25.3218 48.7246C26.1114 48.048 27.0082 47.5275 27.9875 47.1779L34.6061 44.814C35.7963 44.3887 36.817 43.5618 37.4796 42.4853L38.8033 40.3339C38.9937 40.0247 38.8972 39.62 38.588 39.4296C38.2788 39.2393 37.874 39.3358 37.6837 39.645L36.3596 41.7964C35.8535 42.6188 35.0735 43.2509 34.1638 43.5758L27.5451 45.9398C26.4141 46.3435 25.378 46.9447 24.4662 47.7265L21.0144 50.6852H13.2148L15.7294 45.9357Z" fill="white"/>
</svg>
