<svg width="65" height="26" viewBox="0 0 65 26" fill="none" xmlns="http://www.w3.org/2000/svg">
<g clip-path="url(#clip0_255_8716)">
<path d="M27.742 26C27.1919 25.1846 26.7062 24.4108 26.1673 23.6764C24.4455 21.3299 22.7038 18.996 20.9677 16.6597C20.6298 16.2052 20.6282 16.2131 21.0607 15.8207C21.3198 15.5856 21.5694 15.341 21.8159 15.0933C21.9669 14.9415 22.0917 14.9211 22.2841 15.0532C23.9041 16.1675 25.5369 17.2652 27.1561 18.3803C27.7897 18.8167 27.7738 18.8269 28.2531 18.2301C31.3796 14.3392 34.855 10.7951 38.8813 7.80459C39.4615 7.37367 40.0705 6.97971 40.6722 6.57709C40.7787 6.50554 40.9139 6.4387 41.0379 6.43555C41.5673 6.41982 42.0975 6.42926 42.6977 6.42926C36.6165 12.15 32.1173 18.985 27.742 26.0016V26Z" fill="#B6B6B6"/>
<path d="M44.5427 4.68512H47.7152C48.3408 4.68512 48.8456 4.76926 49.2311 4.93675C49.6159 5.10503 49.9347 5.34566 50.1858 5.65941C50.437 5.97317 50.6199 6.33882 50.7328 6.75559C50.8456 7.17236 50.9021 7.6135 50.9021 8.07981C50.9021 8.81033 50.8178 9.37729 50.6501 9.77991C50.4816 10.1825 50.2486 10.5199 49.9498 10.7919C49.6509 11.064 49.3305 11.2449 48.9879 11.3353C48.5197 11.4596 48.0952 11.5217 47.7152 11.5217H44.5427V4.68512V4.68512ZM46.6786 6.23345V9.96863H47.2017C47.6477 9.96863 47.9656 9.91988 48.154 9.82158C48.3424 9.72329 48.4903 9.55265 48.5968 9.30888C48.7033 9.06511 48.7574 8.66957 48.7574 8.12227C48.7574 7.39804 48.6381 6.90185 48.3989 6.63449C48.1604 6.36713 47.7637 6.23345 47.2112 6.23345H46.6786Z" fill="#B6B6B6"/>
<path d="M51.6517 9.25932L53.6835 9.1335C53.7272 9.45984 53.817 9.70833 53.9522 9.87975C54.1724 10.1565 54.4864 10.2949 54.895 10.2949C55.1994 10.2949 55.4347 10.2242 55.6001 10.0826C55.7654 9.94109 55.8473 9.77753 55.8473 9.59037C55.8473 9.40322 55.7686 9.2546 55.612 9.11463C55.4546 8.97466 55.0905 8.84255 54.5182 8.71831C53.5817 8.50992 52.914 8.23313 52.515 7.88792C52.1127 7.54271 51.9116 7.10314 51.9116 6.56842C51.9116 6.21692 52.0142 5.88507 52.22 5.57289C52.4259 5.26071 52.7351 5.01458 53.1485 4.83608C53.5619 4.65758 54.1286 4.56793 54.8481 4.56793C55.7312 4.56793 56.4045 4.73071 56.868 5.05547C57.3314 5.38024 57.6072 5.89687 57.6955 6.60616L55.6827 6.72254C55.6295 6.41508 55.5166 6.19097 55.3457 6.05099C55.174 5.91102 54.9379 5.84104 54.6366 5.84104C54.3886 5.84104 54.201 5.89294 54.0754 5.99752C53.9498 6.10211 53.887 6.22871 53.887 6.37733C53.887 6.48585 53.9387 6.58414 54.0428 6.67143C54.143 6.76186 54.3822 6.84521 54.759 6.92306C55.6923 7.12201 56.3608 7.32332 56.7646 7.52698C57.1684 7.73065 57.4626 7.98307 57.6462 8.28503C57.8298 8.58699 57.922 8.92355 57.922 9.29706C57.922 9.73506 57.7996 10.1392 57.5548 10.5096C57.3099 10.88 56.9673 11.1599 56.5269 11.351C56.0865 11.5421 55.5325 11.638 54.8632 11.638C53.6875 11.638 52.8735 11.4139 52.4212 10.9665C51.9688 10.5191 51.7121 9.94974 51.6525 9.25932H51.6517Z" fill="#B6B6B6"/>
<path d="M58.6239 9.25932L60.6558 9.1335C60.6995 9.45984 60.7893 9.70833 60.9244 9.87975C61.1446 10.1565 61.4586 10.2949 61.8672 10.2949C62.1717 10.2949 62.407 10.2242 62.5723 10.0826C62.7377 9.94109 62.8195 9.77753 62.8195 9.59037C62.8195 9.40322 62.7408 9.2546 62.5842 9.11463C62.4268 8.97466 62.0628 8.84255 61.4904 8.71831C60.554 8.50992 59.8863 8.23313 59.4872 7.88792C59.085 7.54271 58.8839 7.10314 58.8839 6.56842C58.8839 6.21692 58.9864 5.88507 59.1923 5.57289C59.3982 5.26071 59.7074 5.01458 60.1208 4.83608C60.5341 4.65758 61.1009 4.56793 61.8203 4.56793C62.7035 4.56793 63.3768 4.73071 63.8402 5.05547C64.3037 5.38024 64.5795 5.89687 64.6677 6.60616L62.655 6.72254C62.6017 6.41508 62.4888 6.19097 62.3179 6.05099C62.1462 5.91102 61.9101 5.84104 61.6089 5.84104C61.3609 5.84104 61.1732 5.89294 61.0476 5.99752C60.9221 6.10211 60.8593 6.22871 60.8593 6.37733C60.8593 6.48585 60.9109 6.58414 61.0151 6.67143C61.1152 6.76186 61.3545 6.84521 61.7313 6.92306C62.6645 7.12201 63.3331 7.32332 63.7369 7.52698C64.1407 7.73065 64.4348 7.98307 64.6184 8.28503C64.8021 8.58699 64.8943 8.92355 64.8943 9.29706C64.8943 9.73506 64.7719 10.1392 64.527 10.5096C64.2822 10.88 63.9396 11.1599 63.4992 11.351C63.0588 11.5421 62.5047 11.638 61.8354 11.638C60.6597 11.638 59.8457 11.4139 59.3934 10.9665C58.9411 10.5191 58.6843 9.94974 58.6247 9.25932H58.6239Z" fill="#B6B6B6"/>
<path d="M46.3869 14.4288L47.061 14.6301C47.0157 14.8173 46.9442 14.9738 46.8472 15.0988C46.7502 15.2238 46.6286 15.319 46.4847 15.3827C46.3408 15.4464 46.1564 15.4786 45.9338 15.4786C45.6635 15.4786 45.4425 15.4393 45.2708 15.3622C45.0991 15.2844 44.9513 15.1475 44.8273 14.9517C44.7025 14.7559 44.6405 14.5051 44.6405 14.2C44.6405 13.7927 44.7502 13.4797 44.9688 13.2611C45.1882 13.0425 45.4974 12.9332 45.898 12.9332C46.2112 12.9332 46.4577 12.9961 46.6373 13.1211C46.817 13.2469 46.9497 13.4388 47.0372 13.6991L46.3583 13.8485C46.3345 13.7738 46.3098 13.7187 46.2836 13.6841C46.2406 13.6259 46.1882 13.5811 46.1254 13.5497C46.0634 13.5182 45.9934 13.5025 45.9163 13.5025C45.7422 13.5025 45.6087 13.5717 45.5157 13.7109C45.4457 13.8139 45.4108 13.9751 45.4108 14.1961C45.4108 14.4689 45.4529 14.6561 45.5364 14.7575C45.6198 14.8589 45.7383 14.9093 45.8893 14.9093C46.0403 14.9093 46.1476 14.8684 46.2232 14.7866C46.2987 14.7048 46.3527 14.5861 46.3869 14.4304V14.4288Z" fill="#B6B6B6"/>
<path d="M47.433 12.9749H49.4943V13.5009H48.2041V13.8925H49.4013V14.395H48.2041V14.8802H49.5316V15.4377H47.433V12.9756V12.9749Z" fill="#B6B6B6"/>
<path d="M49.9561 15.4369V12.9749H51.2383C51.476 12.9749 51.658 12.9953 51.7836 13.0354C51.9092 13.0755 52.0102 13.1502 52.0873 13.2595C52.1644 13.3688 52.2026 13.5017 52.2026 13.6582C52.2026 13.795 52.1732 13.913 52.1143 14.0121C52.0555 14.1111 51.9744 14.1913 51.8711 14.2535C51.8051 14.2928 51.7153 14.325 51.6008 14.351C51.6922 14.3816 51.759 14.4115 51.8011 14.4422C51.8297 14.4626 51.8703 14.5051 51.9243 14.5719C51.9784 14.638 52.0142 14.6891 52.0325 14.7253L52.4053 15.4385H51.5364L51.1254 14.686C51.0738 14.5885 51.0269 14.5255 50.9863 14.4964C50.9307 14.4587 50.8679 14.439 50.7979 14.439H50.7304V15.4385H49.9577L49.9561 15.4369ZM50.7288 13.9719H51.0531C51.0881 13.9719 51.1564 13.9609 51.2566 13.9381C51.3075 13.9279 51.3488 13.902 51.3814 13.8611C51.414 13.8194 51.4299 13.7722 51.4299 13.718C51.4299 13.6385 51.4045 13.5772 51.3536 13.5347C51.3027 13.4923 51.2073 13.471 51.0666 13.471H50.7288V13.9719Z" fill="#B6B6B6"/>
<path d="M52.476 12.9749H54.8139V13.5827H54.0293V15.4369H53.2598V13.5827H52.4752V12.9749H52.476Z" fill="#B6B6B6"/>
<path d="M55.1923 12.9749H55.9633V15.4369H55.1923V12.9749Z" fill="#B6B6B6"/>
<path d="M56.519 12.9749H58.4204V13.5041H57.2916V13.9342H58.2559V14.4312H57.2916V15.4369H56.519V12.9749V12.9749Z" fill="#B6B6B6"/>
<path d="M58.8656 12.9749H59.6367V15.4369H58.8656V12.9749Z" fill="#B6B6B6"/>
<path d="M60.186 12.9749H62.2472V13.5009H60.957V13.8925H62.1542V14.395H60.957V14.8802H62.2846V15.4377H60.186V12.9756V12.9749Z" fill="#B6B6B6"/>
<path d="M62.7098 12.9749H63.8529C64.0779 12.9749 64.2599 13.0047 64.399 13.0653C64.5374 13.1258 64.6526 13.2123 64.7433 13.3256C64.8339 13.4388 64.8991 13.5701 64.9404 13.7203C64.9809 13.8705 65.0016 14.0294 65.0016 14.1976C65.0016 14.4611 64.9714 14.6647 64.911 14.8102C64.8506 14.9549 64.7663 15.0768 64.659 15.1743C64.5517 15.2718 64.4356 15.3378 64.3124 15.3701C64.1439 15.4149 63.9913 15.4369 63.8537 15.4369H62.7106V12.9749H62.7098ZM63.4793 13.5324V14.8778H63.6677C63.8283 14.8778 63.9428 14.8605 64.0111 14.8251C64.0787 14.7898 64.132 14.7284 64.1709 14.6403C64.2091 14.5523 64.2289 14.4099 64.2289 14.2126C64.2289 13.9515 64.186 13.773 64.1002 13.6771C64.0143 13.5811 63.8712 13.5324 63.6725 13.5324H63.4809H63.4793Z" fill="#B6B6B6"/>
<path d="M32.7174 11.4998C31.7174 9.34364 30.7452 7.17566 29.7635 5.01162C29.0647 3.47036 28.3596 1.93147 27.6728 0.384712C27.5504 0.108702 27.4113 -0.0414914 27.0878 0.010408C26.7929 0.0575892 26.4924 0.0835389 26.1935 0.0969069C25.0448 0.14802 23.8954 0.177115 22.7475 0.239237C20.8389 0.342249 18.9319 0.469639 17.0233 0.578155C15.1147 0.686672 13.2045 0.780248 11.2958 0.887192C8.84272 1.0248 6.39118 1.17028 3.93805 1.31025C2.75441 1.37788 1.56997 1.43764 0.386332 1.50448C0.261529 1.51156 0.138316 1.54616 0 1.57053C1.67411 6.07005 3.33152 10.5247 4.98814 14.9794L5.09863 14.9645C5.11056 14.8316 5.13281 14.6987 5.13281 14.5658C5.1352 12.0707 5.13917 9.57561 5.12884 7.08051C5.12725 6.76912 5.22741 6.6551 5.54538 6.65903C6.82918 6.67476 8.11377 6.6433 9.39678 6.68812C10.4238 6.7243 11.4485 6.82731 12.4064 7.26373C13.4048 7.71825 14.0145 8.46371 14.0884 9.55202C14.1671 10.7088 13.6973 11.6241 12.6846 12.2469C11.5645 12.9349 10.3141 13.0285 9.04622 13.0253C8.79025 13.0253 8.70122 13.0914 8.70758 13.3454C8.72427 13.9808 8.70678 14.6169 8.72984 15.2523C8.74256 15.5904 8.60027 15.6958 8.27991 15.6911C7.44445 15.6801 6.60819 15.6872 5.77193 15.6879C5.25126 15.6879 5.24092 15.7107 5.41899 16.1857C6.10341 18.0045 6.7942 19.821 7.45478 21.6485C7.57402 21.9788 7.70041 22.0385 8.02554 21.9355C9.9254 21.3332 11.8316 20.7489 13.7355 20.1584C15.7307 19.5395 17.726 18.9199 19.7212 18.2994C20.1203 18.1752 20.5177 18.0454 20.9756 17.8992C20.4422 17.1852 19.9541 16.5168 19.4438 15.8649C19.3699 15.7705 19.1926 15.732 19.0567 15.7107C17.873 15.5283 16.7808 15.1367 15.8786 14.3291C14.0447 12.6888 13.9286 8.99214 16.8762 7.41471C18.8659 6.34999 20.9772 6.3264 23.1179 6.89651C23.2284 6.9256 23.358 7.13005 23.3644 7.25902C23.3914 7.82126 23.3795 8.38586 23.3747 8.94968C23.3731 9.11088 23.35 9.27287 23.3326 9.48912C23.1465 9.41756 23.013 9.37274 22.885 9.31612C22.1791 9.00315 21.4454 8.81285 20.6672 8.86475C19.8913 8.91665 19.1807 9.13919 18.7141 9.80759C17.6433 11.3394 18.6592 13.3147 20.5956 13.509C21.5106 13.6002 22.3794 13.4185 23.2332 13.1347C23.5448 13.0309 23.6291 13.1347 23.6235 13.4217C23.614 13.8652 23.5957 14.3103 23.6211 14.7522C23.6307 14.9212 23.707 15.1399 23.8318 15.2389C24.3032 15.6132 24.8008 15.9577 25.3032 16.2919C25.4312 16.3768 25.6339 16.4515 25.7666 16.4122C26.5965 16.166 27.4161 15.8869 28.2388 15.618L28.2404 15.6156C27.2507 15.6392 26.2611 15.6628 25.2706 15.6864C25.0051 15.6927 24.8835 15.5928 24.8842 15.3026C24.893 12.5449 24.8922 9.78714 24.8842 7.03019C24.8835 6.75654 24.9908 6.67397 25.2475 6.67554C26.18 6.68262 27.1124 6.69048 28.0449 6.67161C28.4002 6.66453 28.4336 6.84697 28.4328 7.11983C28.428 8.96619 28.4296 10.8125 28.4312 12.6589C28.4312 13.5341 28.4447 14.4093 28.4312 15.2838C28.4296 15.3946 28.3096 15.5039 28.2404 15.6148H28.246C28.246 15.6148 28.2348 15.6219 28.2356 15.6219C28.7913 15.456 29.3501 15.3003 29.9002 15.1178C30.0393 15.0714 30.1689 14.959 30.2706 14.8473C31.0425 14.002 31.7905 13.1362 32.5799 12.3082C32.8382 12.0369 32.8724 11.8387 32.715 11.499L32.7174 11.4998ZM26.6617 6.00321C25.3747 5.98827 24.4669 5.14923 24.4788 3.987C24.4908 2.7996 25.4121 1.97629 26.711 1.99123C27.9526 2.00539 28.804 2.82713 28.7984 4.0043C28.7929 5.19012 27.9073 6.01815 26.6625 6.004L26.6617 6.00321Z" fill="#B6B6B6"/>
<path d="M9.81332 8.86065C9.6432 8.81819 9.46753 8.79853 9.29264 8.77415V8.75842H8.6575V10.8973H8.73938V10.9005C8.78389 10.8989 8.82841 10.8981 8.87213 10.8973H9.1265C9.17102 10.8973 9.21554 10.8973 9.25926 10.8973H9.29185C9.49217 10.8957 9.69011 10.8855 9.88089 10.8415C10.3936 10.7227 10.6631 10.3146 10.652 9.84123C10.64 9.32774 10.3634 8.99669 9.81252 8.85986L9.81332 8.86065Z" fill="#B6B6B6"/>
</g>
<defs>
<clipPath id="clip0_255_8716">
<rect width="65" height="26" fill="white"/>
</clipPath>
</defs>
</svg>
