<svg data-bbox="1.6 4.8 28.8 22.4" xmlns="http://www.w3.org/2000/svg" viewBox="0 0 32 32" height="32" width="32" data-type="color">
    <g>
        <path fill="#000000" d="M30.4 7.452c-1.06.45-2.198.753-3.393.89 1.22-.7 2.157-1.808 2.598-3.129a12.163 12.163 0 0 1-3.753 1.373A6.025 6.025 0 0 0 21.54 4.8c-3.815 0-6.618 3.406-5.756 6.943-4.91-.236-9.263-2.487-12.178-5.908-1.548 2.541-.802 5.866 1.828 7.55a6.086 6.086 0 0 1-2.675-.707c-.065 2.62 1.897 5.07 4.739 5.616a6.18 6.18 0 0 1-2.669.096c.751 2.247 2.933 3.88 5.52 3.927C7.864 24.18 4.734 25.013 1.6 24.66a17.276 17.276 0 0 0 9.058 2.54c10.97 0 17.168-8.867 16.794-16.82A11.757 11.757 0 0 0 30.4 7.451z" data-color="1"></path>
    </g>
</svg>