<svg width="17" height="14" viewBox="0 0 17 14" fill="none" xmlns="http://www.w3.org/2000/svg">
<path d="M16.7685 1.60494C16.145 1.87712 15.4805 2.05753 14.7877 2.14513C15.5004 1.72174 16.0443 1.0564 16.3001 0.254454C15.6356 0.64865 14.902 0.92709 14.1201 1.08247C13.4892 0.41401 12.59 0 11.6091 0C9.70583 0 8.17361 1.53715 8.17361 3.42158C8.17361 3.69272 8.19667 3.95343 8.25326 4.20162C5.39527 4.06292 2.86637 2.69993 1.16751 0.623622C0.870915 1.13566 0.696942 1.72174 0.696942 2.35266C0.696942 3.53733 1.31004 4.58748 2.22393 5.19546C1.67161 5.18503 1.12978 5.02547 0.670741 4.77415C0.670741 4.78457 0.670741 4.79813 0.670741 4.81169C0.670741 6.47398 1.86235 7.85471 3.42497 8.17278C3.14515 8.24891 2.84017 8.28541 2.52366 8.28541C2.30358 8.28541 2.08139 8.27289 1.87284 8.22701C2.31825 9.58166 3.58218 10.5776 5.08506 10.6099C3.91545 11.5203 2.43039 12.0688 0.822706 12.0688C0.540785 12.0688 0.270393 12.0563 0 12.0219C1.52279 12.9991 3.32751 13.557 5.2737 13.557C11.5996 13.557 15.0581 8.34276 15.0581 3.82307C15.0581 3.67186 15.0529 3.52586 15.0456 3.3809C15.7278 2.89911 16.3011 2.29739 16.7685 1.60494Z" fill="#4CC2FF"/>
</svg>
