<svg width="64" height="64" viewBox="0 0 64 64" fill="none" xmlns="http://www.w3.org/2000/svg">
<rect width="64" height="64" rx="12" fill="#4CC2FF"/>
<path d="M32.35 16.464C32.8171 16.464 33.1958 16.0853 33.1958 15.6182V11.8458C33.1958 11.3787 32.8171 11 32.35 11C31.8828 11 31.5042 11.3787 31.5042 11.8458V15.6182C31.5042 16.0853 31.8829 16.464 32.35 16.464Z" fill="white"/>
<path d="M53.0247 40.0573L51.5305 38.5673C50.999 38.0365 50.2906 37.744 49.5357 37.744C49.0531 37.744 48.5897 37.8641 48.1791 38.0891L45.3635 35.2768L45.5006 35.1399C46.6429 33.9953 46.6425 32.1355 45.5005 30.9948C45.0924 30.586 44.5832 30.3133 44.0282 30.1986C44.1046 29.9348 44.1448 29.6585 44.1448 29.3757C44.1448 28.5901 43.8396 27.8534 43.2872 27.3032C42.879 26.8943 42.3699 26.6217 41.8149 26.507C41.8913 26.2432 41.9315 25.967 41.9315 25.6841C41.9315 24.8984 41.6263 24.1617 41.0729 23.6107C40.655 23.1933 40.1413 22.9291 39.6019 22.8166C39.8904 21.8217 39.6439 20.7022 38.8611 19.9182C38.2096 19.2694 37.3255 18.9905 36.4734 19.0809L30.8939 18.0248C30.043 17.8634 28.9803 17.7566 28.3096 18.3685C28.2672 18.4071 28.2241 18.4515 28.1816 18.501C27.1415 18.1219 25.9284 18.3476 25.0955 19.1796C24.543 19.7315 24.2387 20.4678 24.2387 21.2531C24.2387 21.536 24.2787 21.8122 24.3551 22.0761C23.8006 22.1907 23.2921 22.463 22.8853 22.8705C22.3317 23.4218 22.0264 24.1574 22.0258 24.9417C22.0256 25.2252 22.0658 25.5024 22.1426 25.7669C21.5878 25.8813 21.079 26.1531 20.671 26.5606C20.1174 27.1136 19.8125 27.8504 19.8125 28.6352C19.8125 29.2364 19.992 29.8091 20.3246 30.2929C19.9046 30.4352 19.52 30.6721 19.1979 30.9939C18.0549 32.1355 18.0545 33.9954 19.1987 35.1416L19.3353 35.2777L16.5193 38.0885C15.4728 37.5958 14.1834 37.7804 13.3197 38.6429L11.8246 40.1338C11.2929 40.6649 11.0001 41.3734 11 42.1287C11 42.8841 11.2929 43.5926 11.8246 44.1238L13.6905 45.9875C14.021 46.3176 14.5566 46.3173 14.8866 45.9868C15.2168 45.6563 15.2164 45.1207 14.886 44.7907L13.0201 42.9271C12.8083 42.7155 12.6916 42.432 12.6916 42.1288C12.6916 41.8257 12.8083 41.5422 13.0196 41.3312L14.5148 39.8402C14.8883 39.4671 15.4601 39.4115 15.8943 39.6711C15.9249 39.717 15.9602 39.7607 16.0007 39.8012C16.0732 39.8739 16.1559 39.9296 16.2437 39.9703L24.818 48.5319C24.8587 48.6207 24.9146 48.7043 24.9876 48.7773C25.0587 48.8485 25.1397 48.9035 25.2257 48.944C25.407 49.149 25.5072 49.4108 25.5072 49.6902C25.5072 49.9934 25.3906 50.2768 25.1788 50.4884L23.6851 51.9803C23.2438 52.4197 22.5259 52.4196 22.0859 51.9816L20.22 50.1156C19.8897 49.7852 19.3542 49.7852 19.0239 50.1156C18.6936 50.4459 18.6936 50.9814 19.0239 51.3117L20.8911 53.1791C21.4407 53.7264 22.1625 53.9999 22.8846 53.9999C23.6068 53.9999 24.3294 53.726 24.8797 53.1781L26.3743 51.6853C26.9061 51.1541 27.1989 50.4456 27.1989 49.6902C27.1989 49.1511 27.049 48.6363 26.7703 48.1923L29.9395 45.0269C29.9429 45.0235 29.9462 45.02 29.9497 45.0166C30.3126 44.6414 31.3232 44.7117 32.3005 44.7795C32.9949 44.8278 33.7691 44.8815 34.5254 44.7943L37.996 48.2608C37.7712 48.6707 37.6512 49.1334 37.6512 49.6153C37.6512 50.3699 37.944 51.078 38.4758 51.6092L39.9705 53.102C40.5019 53.6329 41.2103 53.9253 41.9652 53.9253C42.72 53.9253 43.4284 53.633 43.9599 53.102L53.0253 44.0477C53.5571 43.5166 53.8499 42.8081 53.8499 42.0527C53.8498 41.2974 53.557 40.5889 53.0247 40.0573ZM30.579 19.6869L34.248 20.3813L32.0519 22.5766C31.7122 22.4133 31.2466 22.1088 30.7358 21.6202C30.0366 20.9513 29.5365 20.1791 29.491 19.6974C29.4909 19.6972 29.4909 19.6969 29.4909 19.6967C29.4909 19.6966 29.4908 19.6965 29.4908 19.6964C29.4875 19.6618 29.4867 19.6342 29.4871 19.6131C29.5977 19.5862 29.8915 19.5564 30.579 19.6869ZM26.2909 20.3765C26.7194 19.9484 27.385 19.899 27.8692 20.2269C28.1436 21.3773 29.125 22.42 29.5665 22.8424C29.8937 23.1555 30.9436 24.0942 32.0033 24.3522C32.1466 24.5577 32.2247 24.8027 32.2247 25.0612C32.2247 25.3942 32.0966 25.7055 31.8632 25.9387C31.6305 26.1718 31.3186 26.3001 30.985 26.3001C30.6514 26.3001 30.3395 26.1718 30.1057 25.9376L30.1056 25.9375L30.1052 25.9371L26.2908 22.1296C26.0583 21.8973 25.9302 21.586 25.9302 21.2531C25.9303 20.9201 26.0583 20.6088 26.2909 20.3765ZM24.0808 24.0673C24.3135 23.8343 24.625 23.7059 24.9581 23.7059C25.2916 23.7059 25.6041 23.8345 25.8383 24.0685L28.9098 27.1339C29.3935 27.6183 29.3935 28.4066 28.9115 28.8893C28.6775 29.1224 28.3646 29.2507 28.0304 29.2507C27.6962 29.2507 27.3833 29.1224 27.1503 28.8903L27.1502 28.8902L24.8201 26.5606C24.8165 26.557 24.8125 26.5536 24.8088 26.5499L24.0798 25.8213C23.8459 25.5876 23.7172 25.2757 23.7174 24.943C23.7178 24.6113 23.8461 24.301 24.0808 24.0673ZM21.8664 27.7574C22.0993 27.5249 22.4115 27.3968 22.7456 27.3968C23.0769 27.3968 23.3864 27.523 23.6183 27.7516L25.9555 30.0878C26.1886 30.3199 26.317 30.6309 26.317 30.9635C26.317 31.296 26.1886 31.607 25.9546 31.84C25.7218 32.0725 25.41 32.2006 25.0765 32.2006C24.7425 32.2006 24.4296 32.0721 24.1965 31.84L23.3492 30.9937C23.349 30.9935 23.3488 30.9933 23.3486 30.9931L21.8665 29.5128C21.6329 29.2794 21.5042 28.9677 21.5042 28.6351C21.5042 28.3026 21.6329 27.9908 21.8664 27.7574ZM20.3933 32.1907C20.6272 31.957 20.9398 31.8283 21.2735 31.8283C21.6071 31.8283 21.9196 31.9569 22.1534 32.1904L23.0019 33.0379C23.235 33.27 23.3634 33.581 23.3634 33.9136C23.3634 34.2462 23.235 34.5571 23.0001 34.7911C22.7674 35.0241 22.4556 35.1525 22.122 35.1525C21.7883 35.1525 21.4765 35.0242 21.2421 34.7894L21.1358 34.6836C21.1344 34.6821 21.1333 34.6806 21.132 34.6793C21.1304 34.6778 21.1287 34.6764 21.1271 34.6749L20.3942 33.9448C19.9105 33.4602 19.9101 32.6733 20.3933 32.1907ZM37.6298 41.8034C37.2997 41.4728 36.7641 41.4725 36.4337 41.8026L35.6812 42.5542C34.9662 43.2692 33.6705 43.1792 32.4176 43.0923C31.0569 42.9977 29.6499 42.9001 28.7395 43.8349L25.6241 46.9465L17.8334 39.1672L20.5904 36.4152C21.0461 36.6945 21.572 36.8442 22.1222 36.8442C22.9082 36.8442 23.6452 36.5395 24.1957 35.988C24.75 35.4361 25.0552 34.6994 25.0552 33.9137C25.0552 33.9064 25.0547 33.8991 25.0547 33.8918C25.062 33.8919 25.0693 33.8923 25.0766 33.8923C25.8616 33.8923 26.598 33.5886 27.1493 33.038C27.7035 32.486 28.0088 31.7493 28.0088 30.9636C28.0088 30.9563 28.0083 30.9491 28.0083 30.9418C28.0157 30.9418 28.0231 30.9423 28.0306 30.9423C28.8152 30.9423 29.5521 30.6389 30.1071 30.0862C30.6832 29.5091 30.9682 28.7494 30.9627 27.9913C30.9703 27.9913 30.9778 27.9918 30.9854 27.9918C31.7714 27.9917 32.5084 27.6871 33.0597 27.1347C33.6123 26.5828 33.9166 25.8465 33.9166 25.0612C33.9166 24.512 33.7673 23.987 33.4889 23.5323L35.9054 21.1168C36.0854 20.9375 36.3075 20.8249 36.5402 20.7785C36.5654 20.7758 36.5903 20.7718 36.6149 20.7669C36.9883 20.7154 37.3804 20.8306 37.6659 21.115C38.1496 21.5995 38.1496 22.3878 37.6677 22.8705L36.9317 23.6035C36.9293 23.6059 36.9267 23.6081 36.9243 23.6105L36.0766 24.4568C35.746 24.7868 35.7457 25.3224 36.0759 25.6529C36.4061 25.9834 36.9416 25.9837 37.272 25.6536L38.0109 24.9157C38.011 24.9156 38.0112 24.9154 38.0114 24.9152L38.1231 24.804C38.6081 24.3234 39.3938 24.3244 39.8783 24.8082C40.1115 25.0404 40.2399 25.3514 40.2399 25.6839C40.2399 26.0164 40.1115 26.3274 39.8765 26.5614L39.1363 27.3031C39.1362 27.3032 39.1362 27.3033 39.1361 27.3034L38.2885 28.1475C37.9575 28.4772 37.9564 29.0128 38.2861 29.3437C38.6157 29.6746 39.1512 29.6756 39.4822 29.3461L40.3336 28.4981C40.5663 28.265 40.8782 28.1366 41.2118 28.1366C41.5454 28.1366 41.8573 28.265 42.0917 28.4998C42.3249 28.732 42.4532 29.043 42.4532 29.3756C42.4532 29.7081 42.3249 30.0191 42.0904 30.2525L40.6148 31.7287C40.2846 32.0591 40.2847 32.5946 40.615 32.9248C40.7802 33.09 40.9965 33.1724 41.2129 33.1724C41.4294 33.1724 41.646 33.0898 41.8111 32.9246L42.5343 32.2011C42.5384 32.1972 42.5428 32.1938 42.5469 32.1896C42.7797 31.9565 43.0915 31.8282 43.4251 31.8282C43.7588 31.8282 44.0706 31.9565 44.3042 32.1905C44.7873 32.6731 44.7869 33.4601 44.3042 33.9437L43.5689 34.6781C43.5686 34.6784 43.5683 34.6786 43.568 34.6789C43.5678 34.6791 43.5675 34.6794 43.5673 34.6797L42.4002 35.8453C42.0697 36.1755 42.0694 36.711 42.3995 37.0415C42.5647 37.2069 42.7813 37.2896 42.9979 37.2896C43.2142 37.2896 43.4305 37.2071 43.5957 37.0423L44.1665 36.4721L46.9025 39.2049L39.1125 46.9854L36.3213 44.1976C36.5159 44.0724 36.7021 43.9253 36.8769 43.7505L37.629 42.9994C37.9596 42.6694 37.96 42.1338 37.6298 41.8034ZM51.8298 42.8508L42.7644 51.9052C42.5523 52.117 42.2685 52.2336 41.9651 52.2336C41.6617 52.2336 41.3779 52.117 41.1657 51.9051L39.6711 50.4123C39.4593 50.2008 39.3426 49.9178 39.3426 49.6153C39.3426 49.313 39.4593 49.03 39.6711 48.8184L48.7364 39.764C48.9486 39.5521 49.2324 39.4355 49.5358 39.4355C49.8392 39.4355 50.123 39.5521 50.3357 39.7645L51.8298 41.2545C52.0417 41.4661 52.1583 41.7494 52.1583 42.0526C52.1582 42.3559 52.0416 42.6393 51.8298 42.8508Z" fill="white"/>
<path d="M21.1187 15.7509C21.2838 15.9157 21.5 15.998 21.7162 15.998C21.9329 15.998 22.1496 15.9152 22.3148 15.7497C22.6448 15.419 22.6443 14.8836 22.3136 14.5536L19.2316 11.4776C18.901 11.1477 18.3655 11.1481 18.0355 11.4788C17.7055 11.8095 17.706 12.345 18.0367 12.6749L21.1187 15.7509Z" fill="white"/>
<path d="M42.9837 15.9981C43.2 15.9981 43.4163 15.9156 43.5814 15.7508L46.6612 12.6748C46.9916 12.3447 46.992 11.8091 46.6618 11.4787C46.3318 11.1482 45.7963 11.1478 45.4657 11.478L42.386 14.554C42.0555 14.8841 42.0552 15.4196 42.3853 15.7501C42.5505 15.9155 42.7671 15.9981 42.9837 15.9981Z" fill="white"/>
<path d="M16.2006 47.3824C15.8732 47.7155 15.8777 48.2511 16.2109 48.5785L16.2133 48.5809C16.3777 48.7425 16.5911 48.8229 16.8044 48.8229C17.0234 48.8229 17.2423 48.7382 17.4082 48.5695C17.7356 48.2364 17.7298 47.6996 17.3968 47.3722C17.0638 47.0447 16.5283 47.0494 16.2006 47.3824Z" fill="white"/>
<path d="M39.6985 40.585C39.8272 40.585 39.9577 40.5557 40.0803 40.4939C40.4973 40.2836 40.6649 39.775 40.4546 39.3579C40.2442 38.9408 39.7355 38.7732 39.3185 38.9836L39.3138 38.9859C38.8967 39.1963 38.7315 39.7037 38.9418 40.1208C39.0903 40.4154 39.389 40.585 39.6985 40.585Z" fill="white"/>
</svg>
