<svg width="64" height="64" viewBox="0 0 64 64" fill="none" xmlns="http://www.w3.org/2000/svg">
<rect width="64" height="64" rx="12" fill="#4CC2FF"/>
<path d="M51.3157 47.9C50.1266 47.9338 49.0221 48.5226 48.331 49.4907C47.7523 50.1289 47.2952 50.6332 46.359 50.6332C45.4229 50.6332 44.9651 50.1289 44.3857 49.4907C43.695 48.5224 42.5906 47.9337 41.4017 47.9C40.8802 47.8927 40.3647 48.0111 39.8985 48.2451L36.3891 23.9846H37.6497C38.0271 23.9846 38.333 23.6787 38.333 23.3014C38.333 22.924 38.0271 22.6181 37.6497 22.6181H35.5999V17.1517H37.5001C37.5505 17.1516 37.6006 17.1459 37.6497 17.1346C37.6702 17.1298 37.6853 17.1162 37.7044 17.11C37.7482 17.0957 37.7904 17.0767 37.8301 17.0533C37.8675 17.0343 37.9028 17.0114 37.9354 16.985C37.9681 16.9569 37.9978 16.9254 38.0242 16.8914C38.0516 16.8577 38.0759 16.8215 38.0966 16.7834C38.1155 16.7457 38.1309 16.7064 38.1424 16.6659C38.1563 16.6215 38.1656 16.5756 38.1697 16.5292C38.1752 16.5092 38.1796 16.4889 38.1827 16.4684C38.1793 16.4435 38.1745 16.4189 38.1684 16.3946C38.1697 16.3689 38.1697 16.3431 38.1684 16.3174C37.3278 12.6357 33.662 10.3325 29.9803 11.173C27.4198 11.7576 25.4204 13.757 24.8359 16.3174C24.8345 16.3431 24.8345 16.3689 24.8359 16.3946C24.8284 16.4189 24.8222 16.4435 24.8175 16.4684C24.8203 16.488 24.8241 16.5073 24.8291 16.5265C24.8333 16.5729 24.8425 16.6187 24.8564 16.6631C24.8679 16.7036 24.8833 16.743 24.9022 16.7807C24.9229 16.8188 24.9472 16.855 24.9746 16.8886C25.001 16.9227 25.0307 16.9541 25.0634 16.9822C25.0961 17.0085 25.1313 17.0314 25.1687 17.0506C25.2084 17.074 25.2506 17.093 25.2944 17.1073C25.3135 17.1134 25.3286 17.1271 25.3491 17.1319C25.3743 17.1336 25.3996 17.1336 25.4249 17.1319C25.4498 17.1399 25.4751 17.1466 25.5008 17.1517H27.4003V22.6181H25.3504C24.9731 22.6181 24.6671 22.924 24.6671 23.3014C24.6671 23.6787 24.9731 23.9846 25.3504 23.9846H26.6111L23.0956 48.2498C22.6285 48.0139 22.1114 47.8939 21.5882 47.9C20.3998 47.9338 19.2959 48.5229 18.6063 49.4914C18.0282 50.1289 17.5718 50.6332 16.6364 50.6332C15.7009 50.6332 15.2452 50.1296 14.6671 49.4914C13.9771 48.523 12.8731 47.9339 11.6845 47.9C11.3072 47.9 11.0012 48.2059 11.0012 48.5833C11.0012 48.9606 11.3072 49.2666 11.6845 49.2666C12.6199 49.2666 13.0764 49.7709 13.6545 50.4084C14.3441 51.3769 15.4479 51.966 16.6364 51.9998C17.825 51.9659 18.929 51.3768 19.6189 50.4084C20.197 49.7702 20.6535 49.2666 21.5882 49.2666C22.523 49.2666 22.9801 49.7709 23.5581 50.4084C24.2478 51.3769 25.3516 51.966 26.54 51.9998C27.7289 51.966 28.8331 51.377 29.5233 50.4084C30.1014 49.7702 30.5585 49.2666 31.4933 49.2666C32.428 49.2666 32.8858 49.7709 33.4646 50.4084C34.57 52.0561 36.8019 52.4958 38.4497 51.3904C38.8378 51.1301 39.1714 50.7965 39.4318 50.4084C40.0099 49.7702 40.467 49.2666 41.4017 49.2666C42.3365 49.2666 42.795 49.7709 43.3737 50.4084C44.4807 52.0569 46.7145 52.4959 48.3631 51.389C48.7505 51.1288 49.0835 50.7958 49.3437 50.4084C49.9224 49.7709 50.3795 49.2666 51.3157 49.2666C51.693 49.2666 51.999 48.9606 51.999 48.5833C51.999 48.2059 51.6931 47.9 51.3157 47.9ZM26.4321 15.7851C27.5635 12.9861 30.7497 11.6342 33.5486 12.7656C34.9229 13.3211 36.0126 14.4108 36.5681 15.7851H26.4321ZM34.2333 17.1517V22.6181H28.7669V17.1517H34.2333ZM27.9914 23.9846H35.0088L35.8971 30.1343H27.1017L27.9914 23.9846ZM26.9036 31.5009H36.0966L36.6897 35.6007H26.3105L26.9036 31.5009ZM26.1123 36.9673H36.8879L37.481 41.067H25.5192L26.1123 36.9673ZM38.4191 49.4907C37.8411 50.1289 37.3839 50.6332 36.4485 50.6332C35.5124 50.6332 35.056 50.1289 34.4772 49.4914C33.3722 47.8438 31.1408 47.4039 29.4932 48.5089C29.1049 48.7693 28.7711 49.103 28.5107 49.4914C27.9326 50.1289 27.4755 50.6332 26.54 50.6332C25.6046 50.6332 25.1489 50.1296 24.5708 49.4914C24.4956 49.408 24.4177 49.3219 24.3371 49.2358L25.321 42.4336H37.6791L38.6617 49.2263C38.5783 49.3158 38.497 49.4046 38.4191 49.4907Z" fill="white"/>
<path d="M49.266 19.2015H41.0662C40.6889 19.2015 40.3829 19.5075 40.3829 19.8849C40.3829 20.2622 40.6889 20.5682 41.0662 20.5682H49.266C49.6434 20.5682 49.9493 20.2622 49.9493 19.8849C49.9493 19.5075 49.6435 19.2015 49.266 19.2015Z" fill="white"/>
<path d="M48.1172 13.0581C47.9307 12.73 47.5135 12.6153 47.1855 12.8018L40.0845 16.9017C39.8731 17.0237 39.7428 17.2493 39.7428 17.4934C39.7428 17.8708 40.0487 18.1767 40.4261 18.1767C40.5461 18.177 40.664 18.1454 40.7678 18.0852L47.8688 13.9853C48.1913 13.7963 48.302 13.3831 48.1172 13.0581Z" fill="white"/>
<path d="M47.8671 25.7845L40.7661 21.6847C40.7636 21.6831 40.7609 21.6817 40.7583 21.6801C40.4302 21.4936 40.013 21.6083 39.8265 21.9364C39.64 22.2645 39.7547 22.6816 40.0827 22.8682L47.1837 26.968C47.2875 27.0283 47.4054 27.0599 47.5254 27.0596C47.7695 27.0596 47.9951 26.9294 48.1171 26.718C48.3059 26.3912 48.1939 25.9732 47.8671 25.7845Z" fill="white"/>
<path d="M21.9341 19.2015H13.7343C13.357 19.2015 13.051 19.5075 13.051 19.8849C13.051 20.2622 13.357 20.5682 13.7343 20.5682H21.9341C22.3115 20.5682 22.6174 20.2622 22.6174 19.8849C22.6174 19.5075 22.3115 19.2015 21.9341 19.2015Z" fill="white"/>
<path d="M22.916 16.9017L15.8157 12.8018C15.813 12.8003 15.8105 12.7988 15.8078 12.7973C15.4797 12.6108 15.0626 12.7256 14.876 13.0536C14.6895 13.3817 14.8043 13.7989 15.1324 13.9854L22.2327 18.0853C22.3365 18.1453 22.4544 18.1769 22.5743 18.1769C22.8184 18.1769 23.044 18.0466 23.1661 17.8352C23.3548 17.5083 23.2429 17.0904 22.916 16.9017Z" fill="white"/>
<path d="M23.1684 21.9287C22.9776 21.6031 22.5589 21.4939 22.2334 21.6847L15.133 25.7846C14.9216 25.9067 14.7914 26.1323 14.7914 26.3764C14.7914 26.7537 15.0973 27.0597 15.4747 27.0597C15.5947 27.0599 15.7126 27.0283 15.8164 26.9681L22.9167 22.8682C22.9193 22.8668 22.9219 22.8652 22.9245 22.8637C23.25 22.6728 23.3592 22.2542 23.1684 21.9287Z" fill="white"/>
</svg>
